<svg width="76" height="76" viewBox="0 0 76 76" fill="none" xmlns="http://www.w3.org/2000/svg">
<path d="M11.9447 55.3198L45.8923 21.3751L20.75 21.3751C20.1201 21.3751 19.516 21.1249 19.0706 20.6795C18.6252 20.2341 18.375 19.63 18.375 19.0001C18.375 18.3703 18.6252 17.7662 19.0706 17.3208C19.516 16.8754 20.1201 16.6251 20.75 16.6251L51.625 16.6251C52.2549 16.6251 52.859 16.8754 53.3044 17.3208C53.7498 17.7662 54 18.3703 54 19.0001L54 49.8751C54 50.505 53.7498 51.1091 53.3044 51.5545C52.859 51.9999 52.2549 52.2501 51.625 52.2501C50.9951 52.2501 50.391 51.9999 49.9456 51.5545C49.5002 51.1091 49.25 50.505 49.25 49.8751L49.25 24.7328L15.3053 58.6805C15.0846 58.9011 14.8227 59.0762 14.5344 59.1956C14.2461 59.315 13.9371 59.3765 13.625 59.3765C13.3129 59.3765 13.0039 59.315 12.7156 59.1956C12.4273 59.0762 12.1653 58.9011 11.9447 58.6805C11.724 58.4598 11.549 58.1978 11.4296 57.9095C11.3101 57.6212 11.2487 57.3122 11.2487 57.0001C11.2487 56.6881 11.3101 56.3791 11.4296 56.0908C11.549 55.8025 11.724 55.5405 11.9447 55.3198Z" fill="white"/>
</svg>
